<svg xmlns="http://www.w3.org/2000/svg" xmlns:xlink="http://www.w3.org/1999/xlink" width="500" zoomAndPan="magnify" viewBox="0 0 375 374.999991" height="500" preserveAspectRatio="xMidYMid meet" version="1.0"><defs><clipPath id="032ca5edec"><path d="M 0 37.5 L 375 37.5 L 375 138 L 0 138 Z M 0 37.5 " clip-rule="nonzero"/></clipPath><clipPath id="0ead647a78"><path d="M 0 237 L 375 237 L 375 337.5 L 0 337.5 Z M 0 237 " clip-rule="nonzero"/></clipPath></defs><g clip-path="url(#032ca5edec)"><path fill="#537334" d="M 362.5 75 L 135.726562 75 C 135.386719 73.671875 134.996094 72.359375 134.546875 71.0625 C 134.101562 69.765625 133.601562 68.492188 133.050781 67.238281 C 132.496094 65.980469 131.894531 64.75 131.242188 63.546875 C 130.589844 62.34375 129.886719 61.164062 129.136719 60.019531 C 128.382812 58.871094 127.585938 57.757812 126.746094 56.675781 C 125.902344 55.597656 125.015625 54.550781 124.085938 53.542969 C 123.15625 52.535156 122.1875 51.566406 121.179688 50.640625 C 120.167969 49.710938 119.125 48.828125 118.042969 47.984375 C 116.957031 47.144531 115.84375 46.347656 114.695312 45.601562 C 113.546875 44.851562 112.371094 44.152344 111.164062 43.5 C 109.957031 42.847656 108.726562 42.246094 107.472656 41.695312 C 106.214844 41.144531 104.941406 40.648438 103.644531 40.203125 C 102.347656 39.757812 101.035156 39.367188 99.703125 39.03125 C 98.375 38.695312 97.035156 38.414062 95.683594 38.1875 C 94.332031 37.964844 92.972656 37.792969 91.605469 37.679688 C 90.238281 37.566406 88.871094 37.511719 87.5 37.511719 C 86.128906 37.511719 84.761719 37.566406 83.394531 37.679688 C 82.027344 37.792969 80.667969 37.964844 79.316406 38.1875 C 77.964844 38.414062 76.625 38.695312 75.296875 39.03125 C 73.964844 39.367188 72.652344 39.757812 71.355469 40.203125 C 70.058594 40.648438 68.785156 41.144531 67.527344 41.695312 C 66.273438 42.246094 65.042969 42.847656 63.835938 43.5 C 62.628906 44.152344 61.453125 44.851562 60.304688 45.601562 C 59.15625 46.347656 58.042969 47.144531 56.957031 47.984375 C 55.875 48.828125 54.832031 49.710938 53.820312 50.640625 C 52.8125 51.566406 51.84375 52.535156 50.914062 53.542969 C 49.984375 54.550781 49.097656 55.597656 48.253906 56.675781 C 47.414062 57.757812 46.617188 58.871094 45.863281 60.019531 C 45.113281 61.164062 44.410156 62.34375 43.757812 63.546875 C 43.105469 64.75 42.503906 65.980469 41.949219 67.238281 C 41.398438 68.492188 40.898438 69.765625 40.453125 71.0625 C 40.003906 72.359375 39.613281 73.671875 39.273438 75 L 12.5 75 C 11.679688 75 10.867188 75.078125 10.0625 75.238281 C 9.257812 75.398438 8.476562 75.636719 7.714844 75.953125 C 6.957031 76.265625 6.238281 76.652344 5.554688 77.105469 C 4.871094 77.5625 4.242188 78.082031 3.660156 78.660156 C 3.082031 79.242188 2.5625 79.871094 2.105469 80.554688 C 1.652344 81.238281 1.265625 81.957031 0.953125 82.714844 C 0.636719 83.476562 0.398438 84.257812 0.238281 85.0625 C 0.078125 85.867188 0 86.679688 0 87.5 C 0 88.320312 0.078125 89.132812 0.238281 89.9375 C 0.398438 90.742188 0.636719 91.523438 0.953125 92.285156 C 1.265625 93.042969 1.652344 93.761719 2.105469 94.445312 C 2.5625 95.128906 3.082031 95.757812 3.660156 96.339844 C 4.242188 96.917969 4.871094 97.4375 5.554688 97.894531 C 6.238281 98.347656 6.957031 98.734375 7.714844 99.046875 C 8.476562 99.363281 9.257812 99.601562 10.0625 99.761719 C 10.867188 99.917969 11.679688 100 12.5 100 L 39.273438 100 C 39.613281 101.328125 40.003906 102.640625 40.453125 103.9375 C 40.898438 105.234375 41.398438 106.507812 41.949219 107.761719 C 42.503906 109.019531 43.105469 110.246094 43.757812 111.453125 C 44.410156 112.65625 45.113281 113.835938 45.863281 114.980469 C 46.617188 116.128906 47.414062 117.242188 48.253906 118.324219 C 49.097656 119.402344 49.984375 120.449219 50.914062 121.457031 C 51.84375 122.464844 52.8125 123.433594 53.820312 124.359375 C 54.832031 125.289062 55.875 126.171875 56.957031 127.015625 C 58.042969 127.855469 59.15625 128.652344 60.304688 129.398438 C 61.453125 130.148438 62.628906 130.847656 63.835938 131.5 C 65.042969 132.152344 66.273438 132.753906 67.527344 133.304688 C 68.785156 133.855469 70.058594 134.351562 71.355469 134.796875 C 72.652344 135.242188 73.964844 135.632812 75.296875 135.96875 C 76.625 136.304688 77.964844 136.585938 79.316406 136.8125 C 80.667969 137.035156 82.027344 137.207031 83.394531 137.320312 C 84.761719 137.433594 86.128906 137.488281 87.5 137.488281 C 88.871094 137.488281 90.238281 137.433594 91.605469 137.320312 C 92.972656 137.207031 94.332031 137.035156 95.683594 136.8125 C 97.035156 136.585938 98.375 136.304688 99.703125 135.96875 C 101.035156 135.632812 102.347656 135.242188 103.644531 134.796875 C 104.941406 134.351562 106.214844 133.855469 107.472656 133.304688 C 108.726562 132.753906 109.957031 132.152344 111.164062 131.5 C 112.371094 130.847656 113.546875 130.148438 114.695312 129.398438 C 115.84375 128.652344 116.957031 127.855469 118.042969 127.015625 C 119.125 126.171875 120.167969 125.289062 121.179688 124.359375 C 122.1875 123.433594 123.15625 122.464844 124.085938 121.457031 C 125.015625 120.449219 125.902344 119.402344 126.746094 118.324219 C 127.585938 117.242188 128.382812 116.128906 129.136719 114.980469 C 129.886719 113.835938 130.589844 112.65625 131.242188 111.453125 C 131.894531 110.246094 132.496094 109.019531 133.050781 107.761719 C 133.601562 106.507812 134.101562 105.234375 134.546875 103.9375 C 134.996094 102.640625 135.386719 101.328125 135.726562 100 L 362.5 100 C 363.320312 100 364.132812 99.917969 364.9375 99.761719 C 365.742188 99.601562 366.523438 99.363281 367.285156 99.046875 C 368.042969 98.734375 368.761719 98.347656 369.445312 97.894531 C 370.128906 97.4375 370.757812 96.917969 371.339844 96.339844 C 371.917969 95.757812 372.4375 95.128906 372.894531 94.445312 C 373.347656 93.761719 373.734375 93.042969 374.046875 92.285156 C 374.363281 91.523438 374.601562 90.742188 374.757812 89.9375 C 374.917969 89.132812 375 88.320312 375 87.5 C 375 86.679688 374.917969 85.867188 374.757812 85.0625 C 374.601562 84.257812 374.363281 83.476562 374.046875 82.714844 C 373.734375 81.957031 373.347656 81.238281 372.894531 80.554688 C 372.4375 79.871094 371.917969 79.242188 371.339844 78.660156 C 370.757812 78.082031 370.128906 77.5625 369.445312 77.105469 C 368.761719 76.652344 368.042969 76.265625 367.285156 75.953125 C 366.523438 75.636719 365.742188 75.398438 364.9375 75.238281 C 364.132812 75.078125 363.320312 75 362.5 75 Z M 87.5 112.5 C 86.679688 112.5 85.863281 112.460938 85.050781 112.378906 C 84.234375 112.300781 83.425781 112.179688 82.621094 112.019531 C 81.820312 111.859375 81.027344 111.660156 80.242188 111.421875 C 79.460938 111.1875 78.6875 110.910156 77.933594 110.597656 C 77.175781 110.285156 76.4375 109.933594 75.714844 109.546875 C 74.992188 109.160156 74.292969 108.742188 73.609375 108.285156 C 72.929688 107.832031 72.273438 107.34375 71.640625 106.824219 C 71.007812 106.304688 70.402344 105.757812 69.824219 105.175781 C 69.242188 104.597656 68.695312 103.992188 68.175781 103.359375 C 67.65625 102.726562 67.167969 102.070312 66.714844 101.390625 C 66.257812 100.707031 65.839844 100.007812 65.453125 99.285156 C 65.066406 98.5625 64.714844 97.824219 64.402344 97.066406 C 64.089844 96.3125 63.8125 95.539062 63.578125 94.757812 C 63.339844 93.972656 63.140625 93.179688 62.980469 92.378906 C 62.820312 91.574219 62.699219 90.765625 62.621094 89.949219 C 62.539062 89.136719 62.5 88.320312 62.5 87.5 C 62.5 86.679688 62.539062 85.863281 62.621094 85.050781 C 62.699219 84.234375 62.820312 83.425781 62.980469 82.621094 C 63.140625 81.820312 63.339844 81.027344 63.578125 80.242188 C 63.8125 79.460938 64.089844 78.6875 64.402344 77.933594 C 64.714844 77.175781 65.066406 76.4375 65.453125 75.714844 C 65.839844 74.992188 66.257812 74.292969 66.714844 73.609375 C 67.167969 72.929688 67.65625 72.273438 68.175781 71.640625 C 68.695312 71.007812 69.242188 70.402344 69.824219 69.824219 C 70.402344 69.242188 71.007812 68.695312 71.640625 68.175781 C 72.273438 67.65625 72.929688 67.167969 73.609375 66.714844 C 74.292969 66.257812 74.992188 65.839844 75.714844 65.453125 C 76.4375 65.066406 77.175781 64.714844 77.933594 64.402344 C 78.6875 64.089844 79.460938 63.8125 80.242188 63.578125 C 81.027344 63.339844 81.820312 63.140625 82.621094 62.980469 C 83.425781 62.820312 84.234375 62.699219 85.050781 62.621094 C 85.863281 62.539062 86.679688 62.5 87.5 62.5 C 88.320312 62.5 89.136719 62.539062 89.949219 62.621094 C 90.765625 62.699219 91.574219 62.820312 92.378906 62.980469 C 93.179688 63.140625 93.972656 63.339844 94.757812 63.578125 C 95.539062 63.8125 96.3125 64.089844 97.066406 64.402344 C 97.824219 64.714844 98.5625 65.066406 99.285156 65.453125 C 100.007812 65.839844 100.707031 66.257812 101.390625 66.714844 C 102.070312 67.167969 102.726562 67.65625 103.359375 68.175781 C 103.992188 68.695312 104.597656 69.242188 105.175781 69.824219 C 105.757812 70.402344 106.304688 71.007812 106.824219 71.640625 C 107.34375 72.273438 107.832031 72.929688 108.285156 73.609375 C 108.742188 74.292969 109.160156 74.992188 109.546875 75.714844 C 109.933594 76.4375 110.285156 77.175781 110.597656 77.933594 C 110.910156 78.6875 111.1875 79.460938 111.421875 80.242188 C 111.660156 81.027344 111.859375 81.820312 112.019531 82.621094 C 112.179688 83.425781 112.300781 84.234375 112.378906 85.050781 C 112.460938 85.863281 112.5 86.679688 112.5 87.5 C 112.5 88.320312 112.460938 89.136719 112.378906 89.949219 C 112.300781 90.765625 112.179688 91.574219 112.019531 92.378906 C 111.859375 93.179688 111.660156 93.972656 111.421875 94.757812 C 111.1875 95.539062 110.910156 96.3125 110.597656 97.066406 C 110.285156 97.824219 109.933594 98.5625 109.546875 99.285156 C 109.160156 100.007812 108.742188 100.707031 108.285156 101.390625 C 107.832031 102.070312 107.34375 102.726562 106.824219 103.359375 C 106.304688 103.992188 105.757812 104.597656 105.175781 105.175781 C 104.597656 105.757812 103.992188 106.304688 103.359375 106.824219 C 102.726562 107.34375 102.070312 107.832031 101.390625 108.285156 C 100.707031 108.742188 100.007812 109.160156 99.285156 109.546875 C 98.5625 109.933594 97.824219 110.285156 97.066406 110.597656 C 96.3125 110.910156 95.539062 111.1875 94.757812 111.421875 C 93.972656 111.660156 93.179688 111.859375 92.378906 112.019531 C 91.574219 112.179688 90.765625 112.300781 89.949219 112.378906 C 89.136719 112.460938 88.320312 112.5 87.5 112.5 Z M 87.5 112.5 " fill-opacity="1" fill-rule="nonzero"/></g><g clip-path="url(#0ead647a78)"><path fill="#537334" d="M 362.5 275 L 198.226562 275 C 197.886719 273.671875 197.496094 272.359375 197.046875 271.0625 C 196.601562 269.765625 196.101562 268.492188 195.550781 267.238281 C 194.996094 265.980469 194.394531 264.75 193.742188 263.546875 C 193.089844 262.34375 192.386719 261.164062 191.636719 260.019531 C 190.882812 258.871094 190.085938 257.757812 189.246094 256.675781 C 188.402344 255.597656 187.515625 254.550781 186.585938 253.542969 C 185.65625 252.535156 184.6875 251.566406 183.679688 250.640625 C 182.667969 249.710938 181.625 248.828125 180.542969 247.984375 C 179.457031 247.144531 178.34375 246.347656 177.195312 245.601562 C 176.046875 244.851562 174.871094 244.152344 173.664062 243.5 C 172.457031 242.847656 171.226562 242.246094 169.972656 241.695312 C 168.714844 241.144531 167.441406 240.648438 166.144531 240.203125 C 164.847656 239.757812 163.535156 239.367188 162.203125 239.03125 C 160.875 238.695312 159.535156 238.414062 158.183594 238.1875 C 156.832031 237.964844 155.472656 237.792969 154.105469 237.679688 C 152.738281 237.566406 151.371094 237.511719 150 237.511719 C 148.628906 237.511719 147.261719 237.566406 145.894531 237.679688 C 144.527344 237.792969 143.167969 237.964844 141.816406 238.1875 C 140.464844 238.414062 139.125 238.695312 137.792969 239.03125 C 136.464844 239.367188 135.152344 239.757812 133.855469 240.203125 C 132.558594 240.648438 131.285156 241.144531 130.027344 241.695312 C 128.773438 242.246094 127.542969 242.847656 126.335938 243.5 C 125.128906 244.152344 123.953125 244.851562 122.804688 245.601562 C 121.65625 246.347656 120.542969 247.144531 119.457031 247.984375 C 118.375 248.828125 117.332031 249.710938 116.320312 250.640625 C 115.3125 251.566406 114.34375 252.535156 113.414062 253.542969 C 112.484375 254.550781 111.597656 255.59375 110.753906 256.675781 C 109.914062 257.757812 109.117188 258.871094 108.363281 260.019531 C 107.613281 261.164062 106.910156 262.34375 106.257812 263.546875 C 105.605469 264.75 105.003906 265.980469 104.449219 267.238281 C 103.898438 268.492188 103.398438 269.765625 102.953125 271.0625 C 102.503906 272.359375 102.113281 273.671875 101.773438 275 L 12.5 275 C 11.679688 275 10.867188 275.078125 10.0625 275.238281 C 9.257812 275.398438 8.476562 275.636719 7.714844 275.953125 C 6.957031 276.265625 6.238281 276.652344 5.554688 277.105469 C 4.871094 277.5625 4.242188 278.082031 3.660156 278.660156 C 3.082031 279.242188 2.5625 279.871094 2.105469 280.554688 C 1.652344 281.238281 1.265625 281.957031 0.953125 282.714844 C 0.636719 283.476562 0.398438 284.257812 0.238281 285.0625 C 0.078125 285.867188 0 286.679688 0 287.5 C 0 288.320312 0.078125 289.132812 0.238281 289.9375 C 0.398438 290.742188 0.636719 291.523438 0.953125 292.285156 C 1.265625 293.042969 1.652344 293.761719 2.105469 294.445312 C 2.5625 295.128906 3.082031 295.757812 3.660156 296.339844 C 4.242188 296.917969 4.871094 297.4375 5.554688 297.894531 C 6.238281 298.347656 6.957031 298.734375 7.714844 299.046875 C 8.476562 299.363281 9.257812 299.601562 10.0625 299.757812 C 10.867188 299.917969 11.679688 300 12.5 300 L 101.773438 300 C 102.113281 301.328125 102.503906 302.640625 102.953125 303.9375 C 103.398438 305.234375 103.898438 306.507812 104.449219 307.761719 C 105.003906 309.019531 105.605469 310.246094 106.257812 311.453125 C 106.910156 312.65625 107.613281 313.835938 108.363281 314.980469 C 109.117188 316.128906 109.914062 317.242188 110.753906 318.324219 C 111.597656 319.402344 112.484375 320.449219 113.414062 321.457031 C 114.34375 322.464844 115.3125 323.433594 116.320312 324.359375 C 117.332031 325.289062 118.375 326.171875 119.457031 327.015625 C 120.542969 327.855469 121.65625 328.652344 122.804688 329.398438 C 123.953125 330.148438 125.128906 330.847656 126.335938 331.5 C 127.542969 332.152344 128.773438 332.753906 130.027344 333.304688 C 131.285156 333.855469 132.558594 334.351562 133.855469 334.796875 C 135.152344 335.242188 136.464844 335.632812 137.796875 335.96875 C 139.125 336.304688 140.464844 336.585938 141.816406 336.8125 C 143.167969 337.035156 144.527344 337.207031 145.894531 337.320312 C 147.261719 337.433594 148.628906 337.488281 150 337.488281 C 151.371094 337.488281 152.738281 337.433594 154.105469 337.320312 C 155.472656 337.207031 156.832031 337.035156 158.183594 336.8125 C 159.535156 336.585938 160.875 336.304688 162.203125 335.96875 C 163.535156 335.632812 164.847656 335.242188 166.144531 334.796875 C 167.441406 334.351562 168.714844 333.855469 169.972656 333.304688 C 171.226562 332.753906 172.457031 332.152344 173.664062 331.5 C 174.871094 330.847656 176.046875 330.148438 177.195312 329.398438 C 178.34375 328.652344 179.457031 327.855469 180.542969 327.015625 C 181.625 326.171875 182.667969 325.289062 183.679688 324.359375 C 184.6875 323.433594 185.65625 322.464844 186.585938 321.457031 C 187.515625 320.449219 188.402344 319.402344 189.246094 318.324219 C 190.085938 317.242188 190.882812 316.128906 191.636719 314.980469 C 192.386719 313.835938 193.089844 312.65625 193.742188 311.453125 C 194.394531 310.246094 194.996094 309.019531 195.550781 307.761719 C 196.101562 306.507812 196.601562 305.234375 197.046875 303.9375 C 197.496094 302.640625 197.886719 301.328125 198.226562 300 L 362.5 300 C 363.320312 300 364.132812 299.917969 364.9375 299.757812 C 365.742188 299.601562 366.523438 299.363281 367.285156 299.046875 C 368.042969 298.734375 368.761719 298.347656 369.445312 297.894531 C 370.128906 297.4375 370.757812 296.917969 371.339844 296.339844 C 371.917969 295.757812 372.4375 295.128906 372.894531 294.445312 C 373.347656 293.761719 373.734375 293.042969 374.046875 292.285156 C 374.363281 291.523438 374.601562 290.742188 374.757812 289.9375 C 374.917969 289.132812 375 288.320312 375 287.5 C 375 286.679688 374.917969 285.867188 374.757812 285.0625 C 374.601562 284.257812 374.363281 283.476562 374.046875 282.714844 C 373.734375 281.957031 373.347656 281.238281 372.894531 280.554688 C 372.4375 279.871094 371.917969 279.242188 371.339844 278.660156 C 370.757812 278.082031 370.128906 277.5625 369.445312 277.105469 C 368.761719 276.652344 368.042969 276.265625 367.285156 275.953125 C 366.523438 275.636719 365.742188 275.398438 364.9375 275.238281 C 364.132812 275.078125 363.320312 275 362.5 275 Z M 150 312.5 C 149.179688 312.5 148.363281 312.460938 147.550781 312.378906 C 146.734375 312.300781 145.925781 312.179688 145.121094 312.019531 C 144.320312 311.859375 143.527344 311.660156 142.742188 311.421875 C 141.960938 311.1875 141.1875 310.910156 140.433594 310.597656 C 139.675781 310.285156 138.9375 309.933594 138.214844 309.546875 C 137.492188 309.160156 136.792969 308.742188 136.109375 308.285156 C 135.429688 307.832031 134.773438 307.34375 134.140625 306.824219 C 133.507812 306.304688 132.902344 305.757812 132.324219 305.175781 C 131.742188 304.597656 131.195312 303.992188 130.675781 303.359375 C 130.15625 302.726562 129.667969 302.070312 129.214844 301.390625 C 128.757812 300.707031 128.339844 300.007812 127.953125 299.285156 C 127.566406 298.5625 127.214844 297.824219 126.902344 297.066406 C 126.589844 296.3125 126.3125 295.539062 126.078125 294.757812 C 125.839844 293.972656 125.640625 293.179688 125.480469 292.378906 C 125.320312 291.574219 125.199219 290.765625 125.121094 289.949219 C 125.039062 289.136719 125 288.320312 125 287.5 C 125 286.679688 125.039062 285.863281 125.121094 285.050781 C 125.199219 284.234375 125.320312 283.425781 125.480469 282.621094 C 125.640625 281.820312 125.839844 281.027344 126.078125 280.242188 C 126.3125 279.460938 126.589844 278.6875 126.902344 277.933594 C 127.214844 277.175781 127.566406 276.4375 127.953125 275.714844 C 128.339844 274.992188 128.757812 274.292969 129.214844 273.609375 C 129.667969 272.929688 130.15625 272.273438 130.675781 271.640625 C 131.195312 271.007812 131.742188 270.402344 132.324219 269.824219 C 132.902344 269.242188 133.507812 268.695312 134.140625 268.175781 C 134.773438 267.65625 135.429688 267.167969 136.109375 266.714844 C 136.792969 266.257812 137.492188 265.839844 138.214844 265.453125 C 138.9375 265.066406 139.675781 264.714844 140.433594 264.402344 C 141.1875 264.089844 141.960938 263.8125 142.742188 263.578125 C 143.527344 263.339844 144.320312 263.140625 145.121094 262.980469 C 145.925781 262.820312 146.734375 262.699219 147.550781 262.621094 C 148.363281 262.539062 149.179688 262.5 150 262.5 C 150.820312 262.5 151.636719 262.539062 152.449219 262.621094 C 153.265625 262.699219 154.074219 262.820312 154.878906 262.980469 C 155.679688 263.140625 156.472656 263.339844 157.257812 263.578125 C 158.039062 263.8125 158.8125 264.089844 159.566406 264.402344 C 160.324219 264.714844 161.0625 265.066406 161.785156 265.453125 C 162.507812 265.839844 163.207031 266.257812 163.890625 266.714844 C 164.570312 267.167969 165.226562 267.65625 165.859375 268.175781 C 166.492188 268.695312 167.097656 269.242188 167.675781 269.824219 C 168.257812 270.402344 168.804688 271.007812 169.324219 271.640625 C 169.84375 272.273438 170.332031 272.929688 170.785156 273.609375 C 171.242188 274.292969 171.660156 274.992188 172.046875 275.714844 C 172.433594 276.4375 172.785156 277.175781 173.097656 277.933594 C 173.410156 278.6875 173.6875 279.460938 173.921875 280.242188 C 174.160156 281.027344 174.359375 281.820312 174.519531 282.621094 C 174.679688 283.425781 174.800781 284.234375 174.878906 285.050781 C 174.960938 285.863281 175 286.679688 175 287.5 C 175 288.320312 174.960938 289.136719 174.878906 289.949219 C 174.800781 290.765625 174.679688 291.574219 174.519531 292.378906 C 174.359375 293.179688 174.160156 293.972656 173.921875 294.757812 C 173.6875 295.539062 173.410156 296.3125 173.097656 297.066406 C 172.785156 297.824219 172.433594 298.5625 172.046875 299.285156 C 171.660156 300.007812 171.242188 300.707031 170.785156 301.390625 C 170.332031 302.070312 169.84375 302.726562 169.324219 303.359375 C 168.804688 303.992188 168.257812 304.597656 167.675781 305.175781 C 167.097656 305.757812 166.492188 306.304688 165.859375 306.824219 C 165.226562 307.34375 164.570312 307.832031 163.890625 308.285156 C 163.207031 308.742188 162.507812 309.160156 161.785156 309.546875 C 161.0625 309.933594 160.324219 310.285156 159.566406 310.597656 C 158.8125 310.910156 158.039062 311.1875 157.257812 311.421875 C 156.472656 311.660156 155.679688 311.859375 154.878906 312.019531 C 154.074219 312.179688 153.265625 312.300781 152.449219 312.378906 C 151.636719 312.460938 150.820312 312.5 150 312.5 Z M 150 312.5 " fill-opacity="1" fill-rule="nonzero"/></g><path fill="#537334" d="M 362.5 175 L 348.226562 175 C 347.886719 173.671875 347.496094 172.359375 347.046875 171.0625 C 346.601562 169.765625 346.101562 168.492188 345.550781 167.238281 C 344.996094 165.980469 344.394531 164.753906 343.742188 163.546875 C 343.085938 162.34375 342.386719 161.164062 341.636719 160.019531 C 340.882812 158.871094 340.085938 157.757812 339.246094 156.675781 C 338.402344 155.597656 337.515625 154.550781 336.585938 153.542969 C 335.65625 152.535156 334.6875 151.566406 333.679688 150.640625 C 332.667969 149.710938 331.625 148.828125 330.539062 147.984375 C 329.457031 147.144531 328.34375 146.347656 327.195312 145.601562 C 326.046875 144.851562 324.871094 144.152344 323.664062 143.5 C 322.457031 142.847656 321.226562 142.246094 319.972656 141.695312 C 318.714844 141.144531 317.441406 140.648438 316.144531 140.203125 C 314.847656 139.757812 313.535156 139.367188 312.203125 139.03125 C 310.875 138.695312 309.535156 138.414062 308.183594 138.1875 C 306.832031 137.964844 305.472656 137.792969 304.105469 137.679688 C 302.738281 137.566406 301.371094 137.511719 300 137.511719 C 298.628906 137.511719 297.261719 137.566406 295.894531 137.679688 C 294.527344 137.792969 293.167969 137.964844 291.816406 138.1875 C 290.464844 138.414062 289.125 138.695312 287.792969 139.03125 C 286.464844 139.367188 285.152344 139.757812 283.855469 140.203125 C 282.558594 140.648438 281.285156 141.144531 280.027344 141.695312 C 278.773438 142.246094 277.542969 142.847656 276.335938 143.5 C 275.128906 144.152344 273.953125 144.851562 272.804688 145.601562 C 271.65625 146.347656 270.542969 147.144531 269.457031 147.984375 C 268.375 148.828125 267.332031 149.710938 266.320312 150.640625 C 265.3125 151.566406 264.34375 152.535156 263.414062 153.542969 C 262.484375 154.550781 261.597656 155.597656 260.753906 156.675781 C 259.914062 157.757812 259.117188 158.871094 258.363281 160.019531 C 257.613281 161.164062 256.910156 162.34375 256.257812 163.546875 C 255.605469 164.75 255.003906 165.980469 254.449219 167.238281 C 253.898438 168.492188 253.398438 169.765625 252.953125 171.0625 C 252.503906 172.359375 252.113281 173.671875 251.773438 175 L 12.5 175 C 11.679688 175 10.867188 175.078125 10.0625 175.238281 C 9.257812 175.398438 8.476562 175.636719 7.714844 175.953125 C 6.957031 176.265625 6.238281 176.652344 5.554688 177.105469 C 4.871094 177.5625 4.242188 178.082031 3.660156 178.660156 C 3.082031 179.242188 2.5625 179.871094 2.105469 180.554688 C 1.652344 181.238281 1.265625 181.957031 0.953125 182.714844 C 0.636719 183.476562 0.398438 184.257812 0.238281 185.0625 C 0.078125 185.867188 0 186.679688 0 187.5 C 0 188.320312 0.078125 189.132812 0.238281 189.9375 C 0.398438 190.742188 0.636719 191.523438 0.953125 192.285156 C 1.265625 193.042969 1.652344 193.761719 2.105469 194.445312 C 2.5625 195.128906 3.082031 195.757812 3.660156 196.339844 C 4.242188 196.917969 4.871094 197.4375 5.554688 197.894531 C 6.238281 198.347656 6.957031 198.734375 7.714844 199.046875 C 8.476562 199.363281 9.257812 199.601562 10.0625 199.757812 C 10.867188 199.917969 11.679688 200 12.5 200 L 251.773438 200 C 252.113281 201.328125 252.503906 202.640625 252.953125 203.9375 C 253.398438 205.234375 253.898438 206.507812 254.449219 207.761719 C 255.003906 209.019531 255.605469 210.246094 256.257812 211.453125 C 256.910156 212.65625 257.613281 213.832031 258.363281 214.980469 C 259.117188 216.128906 259.914062 217.242188 260.753906 218.324219 C 261.597656 219.402344 262.484375 220.449219 263.414062 221.457031 C 264.34375 222.464844 265.3125 223.433594 266.320312 224.359375 C 267.332031 225.289062 268.375 226.171875 269.457031 227.015625 C 270.542969 227.855469 271.65625 228.652344 272.804688 229.398438 C 273.953125 230.148438 275.128906 230.847656 276.335938 231.5 C 277.542969 232.152344 278.773438 232.753906 280.027344 233.304688 C 281.285156 233.855469 282.558594 234.351562 283.855469 234.796875 C 285.152344 235.242188 286.464844 235.632812 287.792969 235.96875 C 289.125 236.304688 290.464844 236.585938 291.816406 236.8125 C 293.167969 237.035156 294.527344 237.207031 295.894531 237.320312 C 297.261719 237.433594 298.628906 237.488281 300 237.488281 C 301.371094 237.488281 302.738281 237.433594 304.105469 237.320312 C 305.472656 237.207031 306.832031 237.035156 308.183594 236.8125 C 309.535156 236.585938 310.875 236.304688 312.203125 235.96875 C 313.535156 235.632812 314.847656 235.242188 316.144531 234.796875 C 317.441406 234.351562 318.714844 233.855469 319.972656 233.304688 C 321.226562 232.753906 322.457031 232.152344 323.664062 231.5 C 324.871094 230.847656 326.046875 230.148438 327.195312 229.398438 C 328.34375 228.652344 329.457031 227.855469 330.539062 227.015625 C 331.625 226.171875 332.667969 225.289062 333.679688 224.359375 C 334.6875 223.433594 335.65625 222.464844 336.585938 221.457031 C 337.515625 220.449219 338.402344 219.402344 339.246094 218.324219 C 340.085938 217.242188 340.882812 216.128906 341.636719 214.980469 C 342.386719 213.832031 343.085938 212.65625 343.742188 211.453125 C 344.394531 210.246094 344.996094 209.019531 345.550781 207.761719 C 346.101562 206.507812 346.601562 205.234375 347.046875 203.9375 C 347.496094 202.640625 347.886719 201.328125 348.226562 200 L 362.5 200 C 363.320312 200 364.132812 199.917969 364.9375 199.757812 C 365.742188 199.601562 366.523438 199.363281 367.285156 199.046875 C 368.042969 198.734375 368.761719 198.347656 369.445312 197.894531 C 370.128906 197.4375 370.757812 196.917969 371.339844 196.339844 C 371.917969 195.757812 372.4375 195.128906 372.894531 194.445312 C 373.347656 193.761719 373.734375 193.042969 374.046875 192.285156 C 374.363281 191.523438 374.601562 190.742188 374.757812 189.9375 C 374.917969 189.132812 375 188.320312 375 187.5 C 375 186.679688 374.917969 185.867188 374.757812 185.0625 C 374.601562 184.257812 374.363281 183.476562 374.046875 182.714844 C 373.734375 181.957031 373.347656 181.238281 372.894531 180.554688 C 372.4375 179.871094 371.917969 179.242188 371.339844 178.660156 C 370.757812 178.082031 370.128906 177.5625 369.445312 177.105469 C 368.761719 176.652344 368.042969 176.265625 367.285156 175.953125 C 366.523438 175.636719 365.742188 175.398438 364.9375 175.238281 C 364.132812 175.078125 363.320312 175 362.5 175 Z M 300 212.5 C 299.179688 212.5 298.363281 212.460938 297.550781 212.378906 C 296.734375 212.300781 295.925781 212.179688 295.121094 212.019531 C 294.320312 211.859375 293.527344 211.660156 292.742188 211.421875 C 291.960938 211.1875 291.1875 210.910156 290.433594 210.597656 C 289.675781 210.285156 288.9375 209.933594 288.214844 209.546875 C 287.492188 209.160156 286.792969 208.742188 286.109375 208.285156 C 285.429688 207.832031 284.773438 207.34375 284.140625 206.824219 C 283.507812 206.304688 282.902344 205.757812 282.324219 205.175781 C 281.742188 204.597656 281.195312 203.992188 280.675781 203.359375 C 280.15625 202.726562 279.667969 202.070312 279.214844 201.390625 C 278.757812 200.707031 278.339844 200.007812 277.953125 199.285156 C 277.566406 198.5625 277.214844 197.824219 276.902344 197.066406 C 276.589844 196.3125 276.3125 195.539062 276.078125 194.757812 C 275.839844 193.972656 275.640625 193.179688 275.480469 192.378906 C 275.320312 191.574219 275.199219 190.765625 275.121094 189.949219 C 275.039062 189.136719 275 188.320312 275 187.5 C 275 186.679688 275.039062 185.863281 275.121094 185.050781 C 275.199219 184.234375 275.320312 183.425781 275.480469 182.621094 C 275.640625 181.820312 275.839844 181.027344 276.078125 180.242188 C 276.3125 179.460938 276.589844 178.6875 276.902344 177.933594 C 277.214844 177.175781 277.566406 176.4375 277.953125 175.714844 C 278.339844 174.992188 278.757812 174.292969 279.214844 173.609375 C 279.667969 172.929688 280.15625 172.273438 280.675781 171.640625 C 281.195312 171.007812 281.742188 170.402344 282.324219 169.824219 C 282.902344 169.242188 283.507812 168.695312 284.140625 168.175781 C 284.773438 167.65625 285.429688 167.167969 286.109375 166.714844 C 286.792969 166.257812 287.492188 165.839844 288.214844 165.453125 C 288.9375 165.066406 289.675781 164.714844 290.433594 164.402344 C 291.1875 164.089844 291.960938 163.8125 292.742188 163.578125 C 293.527344 163.339844 294.320312 163.140625 295.121094 162.980469 C 295.925781 162.820312 296.734375 162.699219 297.550781 162.621094 C 298.363281 162.539062 299.179688 162.5 300 162.5 C 300.820312 162.5 301.636719 162.539062 302.449219 162.621094 C 303.265625 162.699219 304.074219 162.820312 304.878906 162.980469 C 305.679688 163.140625 306.472656 163.339844 307.257812 163.578125 C 308.039062 163.8125 308.8125 164.089844 309.566406 164.402344 C 310.324219 164.714844 311.0625 165.066406 311.785156 165.453125 C 312.507812 165.839844 313.207031 166.257812 313.890625 166.714844 C 314.570312 167.167969 315.226562 167.65625 315.859375 168.175781 C 316.492188 168.695312 317.097656 169.242188 317.675781 169.824219 C 318.257812 170.402344 318.804688 171.007812 319.324219 171.640625 C 319.84375 172.273438 320.332031 172.929688 320.785156 173.609375 C 321.242188 174.292969 321.660156 174.992188 322.046875 175.714844 C 322.433594 176.4375 322.785156 177.175781 323.097656 177.933594 C 323.410156 178.6875 323.6875 179.460938 323.921875 180.242188 C 324.160156 181.027344 324.359375 181.820312 324.519531 182.621094 C 324.679688 183.425781 324.800781 184.234375 324.878906 185.050781 C 324.960938 185.863281 325 186.679688 325 187.5 C 325 188.320312 324.960938 189.136719 324.878906 189.949219 C 324.800781 190.765625 324.679688 191.574219 324.519531 192.378906 C 324.359375 193.179688 324.160156 193.972656 323.921875 194.757812 C 323.6875 195.539062 323.410156 196.3125 323.097656 197.066406 C 322.785156 197.824219 322.433594 198.5625 322.046875 199.285156 C 321.660156 200.007812 321.242188 200.707031 320.785156 201.390625 C 320.332031 202.070312 319.84375 202.726562 319.324219 203.359375 C 318.804688 203.992188 318.257812 204.597656 317.675781 205.175781 C 317.097656 205.757812 316.492188 206.304688 315.859375 206.824219 C 315.226562 207.34375 314.570312 207.832031 313.890625 208.285156 C 313.207031 208.742188 312.507812 209.160156 311.785156 209.546875 C 311.0625 209.933594 310.324219 210.285156 309.566406 210.597656 C 308.8125 210.910156 308.039062 211.1875 307.257812 211.421875 C 306.472656 211.660156 305.679688 211.859375 304.878906 212.019531 C 304.074219 212.179688 303.265625 212.300781 302.449219 212.378906 C 301.636719 212.460938 300.820312 212.5 300 212.5 Z M 300 212.5 " fill-opacity="1" fill-rule="nonzero"/></svg>